{
   "accessors" : [
      {
         "bufferView" : 0,
         "byteOffset" : 0,
         "componentType" : 5123,
         "count" : 18,
         "max" : [ 7 ],
         "min" : [ 0 ],
         "name" : "buffer-0-group-0-mesh-0-indices",
         "type" : "SCALAR"
      },
      {
         "bufferView" : 1,
         "byteOffset" : 0,
         "componentType" : 5126,
         "count" : 8,
         "max" : [ 23.36919975280762, 39.23109817504883, 50.20780181884766 ],
         "min" : [ -18.00079917907715, 29.85939979553223, -34.54219818115234 ],
         "name" : "buffer-0-group-0-mesh-0-position",
         "type" : "VEC3"
      },
      {
         "bufferView" : 1,
         "byteOffset" : 96,
         "componentType" : 5126,
         "count" : 8,
         "max" : [ 0, 1, 0 ],
         "min" : [ 0, -1, 0 ],
         "name" : "buffer-0-group-0-mesh-0-normal",
         "type" : "VEC3"
      },
      {
         "bufferView" : 2,
         "byteOffset" : 0,
         "componentType" : 5126,
         "count" : 8,
         "max" : [ 1, 0 ],
         "min" : [ 0, -1 ],
         "name" : "buffer-0-group-0-mesh-0-texcoord",
         "type" : "VEC2"
      },
      {
         "bufferView" : 0,
         "byteOffset" : 36,
         "componentType" : 5123,
         "count" : 12,
         "max" : [ 7 ],
         "min" : [ 0 ],
         "name" : "buffer-0-group-1-mesh-0-indices",
         "type" : "SCALAR"
      },
      {
         "bufferView" : 1,
         "byteOffset" : 192,
         "componentType" : 5126,
         "count" : 8,
         "max" : [ 23.36919975280762, 39.23109817504883, 50.20780181884766 ],
         "min" : [ -18.00079917907715, 29.85939979553223, -34.54219818115234 ],
         "name" : "buffer-0-group-1-mesh-0-position",
         "type" : "VEC3"
      },
      {
         "bufferView" : 1,
         "byteOffset" : 288,
         "componentType" : 5126,
         "count" : 8,
         "max" : [ 0.4126875996589661, 0, -0.9108726382255554 ],
         "min" : [ -0.4126875996589661, 0, -0.9108726382255554 ],
         "name" : "buffer-0-group-1-mesh-0-normal",
         "type" : "VEC3"
      },
      {
         "bufferView" : 2,
         "byteOffset" : 64,
         "componentType" : 5126,
         "count" : 8,
         "max" : [ 1, 0 ],
         "min" : [ 0.4776999950408936, -1 ],
         "name" : "buffer-0-group-1-mesh-0-texcoord",
         "type" : "VEC2"
      },
      {
         "bufferView" : 0,
         "byteOffset" : 60,
         "componentType" : 5123,
         "count" : 36,
         "max" : [ 19 ],
         "min" : [ 0 ],
         "name" : "buffer-0-group-2-mesh-0-indices",
         "type" : "SCALAR"
      },
      {
         "bufferView" : 1,
         "byteOffset" : 384,
         "componentType" : 5126,
         "count" : 20,
         "max" : [ 23.36919975280762, 29.85939979553223, 50.20780181884766 ],
         "min" : [ -18.00079917907715, 0, -34.54219818115234 ],
         "name" : "buffer-0-group-2-mesh-0-position",
         "type" : "VEC3"
      },
      {
         "bufferView" : 1,
         "byteOffset" : 624,
         "componentType" : 5126,
         "count" : 20,
         "max" : [ 0, 1, 0 ],
         "min" : [ 0, -1, 0 ],
         "name" : "buffer-0-group-2-mesh-0-normal",
         "type" : "VEC3"
      },
      {
         "bufferView" : 2,
         "byteOffset" : 128,
         "componentType" : 5126,
         "count" : 20,
         "max" : [ 1, 0 ],
         "min" : [ 0, -1 ],
         "name" : "buffer-0-group-2-mesh-0-texcoord",
         "type" : "VEC2"
      },
      {
         "bufferView" : 0,
         "byteOffset" : 132,
         "componentType" : 5123,
         "count" : 18,
         "max" : [ 9 ],
         "min" : [ 0 ],
         "name" : "buffer-0-group-3-mesh-0-indices",
         "type" : "SCALAR"
      },
      {
         "bufferView" : 1,
         "byteOffset" : 864,
         "componentType" : 5126,
         "count" : 10,
         "max" : [ -18.00079917907715, 29.85939979553223, 50.20780181884766 ],
         "min" : [ -18.00079917907715, 0, -34.54219818115234 ],
         "name" : "buffer-0-group-3-mesh-0-position",
         "type" : "VEC3"
      },
      {
         "bufferView" : 1,
         "byteOffset" : 984,
         "componentType" : 5126,
         "count" : 10,
         "max" : [ -1, 0, 0 ],
         "min" : [ -1, 0, 0 ],
         "name" : "buffer-0-group-3-mesh-0-normal",
         "type" : "VEC3"
      },
      {
         "bufferView" : 2,
         "byteOffset" : 288,
         "componentType" : 5126,
         "count" : 10,
         "max" : [ 1, 0 ],
         "min" : [ 0, -1 ],
         "name" : "buffer-0-group-3-mesh-0-texcoord",
         "type" : "VEC2"
      },
      {
         "bufferView" : 0,
         "byteOffset" : 168,
         "componentType" : 5123,
         "count" : 6,
         "max" : [ 3 ],
         "min" : [ 0 ],
         "name" : "buffer-0-group-4-mesh-0-indices",
         "type" : "SCALAR"
      },
      {
         "bufferView" : 1,
         "byteOffset" : 1104,
         "componentType" : 5126,
         "count" : 4,
         "max" : [ 23.36919975280762, 29.85939979553223, 50.20780181884766 ],
         "min" : [ 23.36919975280762, 29.85759925842285, -34.54219818115234 ],
         "name" : "buffer-0-group-4-mesh-0-position",
         "type" : "VEC3"
      },
      {
         "bufferView" : 1,
         "byteOffset" : 1152,
         "componentType" : 5126,
         "count" : 4,
         "max" : [ 0.9999994039535522, 0, -0.001099999295547605 ],
         "min" : [ 0.9999994039535522, 0, -0.001099999295547605 ],
         "name" : "buffer-0-group-4-mesh-0-normal",
         "type" : "VEC3"
      },
      {
         "bufferView" : 2,
         "byteOffset" : 368,
         "componentType" : 5126,
         "count" : 4,
         "max" : [ 0.4776999950408936, 0 ],
         "min" : [ 0.4776999950408936, -1 ],
         "name" : "buffer-0-group-4-mesh-0-texcoord",
         "type" : "VEC2"
      },
      {
         "bufferView" : 0,
         "byteOffset" : 180,
         "componentType" : 5123,
         "count" : 12,
         "max" : [ 7 ],
         "min" : [ 0 ],
         "name" : "buffer-0-group-5-mesh-0-indices",
         "type" : "SCALAR"
      },
      {
         "bufferView" : 1,
         "byteOffset" : 1200,
         "componentType" : 5126,
         "count" : 8,
         "max" : [ 23.36919975280762, 29.85759925842285, 50.20780181884766 ],
         "min" : [ 23.36910057067871, 0, -34.54219818115234 ],
         "name" : "buffer-0-group-5-mesh-0-position",
         "type" : "VEC3"
      },
      {
         "bufferView" : 1,
         "byteOffset" : 1296,
         "componentType" : 5126,
         "count" : 8,
         "max" : [ 1, 0, 0.0003999999607913196 ],
         "min" : [ 0.9999999403953552, 0, 0 ],
         "name" : "buffer-0-group-5-mesh-0-normal",
         "type" : "VEC3"
      },
      {
         "bufferView" : 2,
         "byteOffset" : 400,
         "componentType" : 5126,
         "count" : 8,
         "max" : [ 1, 0 ],
         "min" : [ 0, -1 ],
         "name" : "buffer-0-group-5-mesh-0-texcoord",
         "type" : "VEC2"
      },
      {
         "bufferView" : 0,
         "byteOffset" : 204,
         "componentType" : 5123,
         "count" : 6,
         "max" : [ 3 ],
         "min" : [ 0 ],
         "name" : "buffer-0-group-6-mesh-0-indices",
         "type" : "SCALAR"
      },
      {
         "bufferView" : 1,
         "byteOffset" : 1392,
         "componentType" : 5126,
         "count" : 4,
         "max" : [ 23.36910057067871, 0, 50.20780181884766 ],
         "min" : [ -18.00079917907715, 0, -34.54219818115234 ],
         "name" : "buffer-0-group-6-mesh-0-position",
         "type" : "VEC3"
      },
      {
         "bufferView" : 1,
         "byteOffset" : 1440,
         "componentType" : 5126,
         "count" : 4,
         "max" : [ 0, 0, 1 ],
         "min" : [ 0, 0, 1 ],
         "name" : "buffer-0-group-6-mesh-0-normal",
         "type" : "VEC3"
      },
      {
         "bufferView" : 2,
         "byteOffset" : 464,
         "componentType" : 5126,
         "count" : 4,
         "max" : [ 1, 0 ],
         "min" : [ 0, -1 ],
         "name" : "buffer-0-group-6-mesh-0-texcoord",
         "type" : "VEC2"
      }
   ],
   "asset" : {
      "extras" : {
         "GOOGLE_processor_version" : 294144208
      },
      "generator" : "Obj2GltfConverter",
      "version" : "2.0"
   },
   "bufferViews" : [
      {
         "buffer" : 0,
         "byteLength" : 216,
         "byteOffset" : 0,
         "name" : "buffer-0-bufferview-ushort",
         "target" : 34963
      },
      {
         "buffer" : 0,
         "byteLength" : 1488,
         "byteOffset" : 216,
         "byteStride" : 12,
         "name" : "buffer-0-bufferview-vec3",
         "target" : 34962
      },
      {
         "buffer" : 0,
         "byteLength" : 496,
         "byteOffset" : 1704,
         "byteStride" : 8,
         "name" : "buffer-0-bufferview-vec2",
         "target" : 34962
      }
   ],
   "buffers" : [
      {
         "byteLength" : 2200,
         "name" : "buffer-0",
         "uri" : "ReedHall.bin"
      }
   ],
   "cameras" : [
      {
         "perspective" : {
            "yfov" : 0.7853981633974483,
            "znear" : 0.1000000014901161
         },
         "type" : "perspective"
      }
   ],
   "extensions" : {
      "KHR_lights_punctual" : {
         "lights" : [
            {
               "color" : [ 1, 0.9333333333333333, 0.8666666666666667 ],
               "intensity" : 0.25,
               "name" : "headLight",
               "type" : "directional"
            },
            {
               "color" : [ 1, 0.9333333333333333, 0.8666666666666667 ],
               "intensity" : 0.324999988079071,
               "name" : "keyLight",
               "type" : "directional"
            }
         ]
      }
   },
   "extensionsUsed" : [ "GOOGLE_backgrounds", "GOOGLE_camera_settings", "KHR_lights_punctual" ],
   "extras" : {
      "GOOGLE_initial_camera_motion" : {
         "motionPath" : "FULL_ROTATION"
      },
      "GOOGLE_lighting_rig" : {
         "disableShadows" : false
      }
   },
   "images" : [
      {
         "mimeType" : "image/png",
         "name" : "20___Default-diffuse-image",
         "uri" : "C:/Users/tilt-admin/Documents/Buildings with Hats/Buildings with Hats/reedHat.fbm/reed-roof-triangle.png"
      },
      {
         "mimeType" : "image/png",
         "name" : "01___Default-diffuse-image",
         "uri" : "C:/Users/tilt-admin/Documents/Buildings with Hats/Buildings with Hats/reedHat.fbm/reed-1-3.png"
      },
      {
         "mimeType" : "image/png",
         "name" : "03___Default-diffuse-image",
         "uri" : "C:/Users/tilt-admin/Documents/Buildings with Hats/Buildings with Hats/reedHat.fbm/reed-4.png"
      },
      {
         "mimeType" : "image/png",
         "name" : "02___Default-diffuse-image",
         "uri" : "C:/Users/tilt-admin/Documents/Buildings with Hats/Buildings with Hats/reedHat.fbm/reed-2.png"
      }
   ],
   "materials" : [
      {
         "alphaCutoff" : 0.5,
         "alphaMode" : "OPAQUE",
         "doubleSided" : true,
         "emissiveFactor" : [ 0, 0, 0 ],
         "name" : "20___Default",
         "pbrMetallicRoughness" : {
            "baseColorFactor" : [ 0.9020000100135803, 0.9020000100135803, 0.9020000100135803, 1 ],
            "baseColorTexture" : {
               "index" : 0,
               "texCoord" : 0
            },
            "metallicFactor" : 0,
            "roughnessFactor" : 0.9699476361274719
         }
      },
      {
         "alphaCutoff" : 0.5,
         "alphaMode" : "OPAQUE",
         "doubleSided" : true,
         "emissiveFactor" : [ 0, 0, 0 ],
         "name" : "06___Default",
         "pbrMetallicRoughness" : {
            "baseColorFactor" : [ 0.4783999919891357, 0.6000000238418579, 0.3569000065326691, 1 ],
            "metallicFactor" : 0,
            "roughnessFactor" : 0.9699476361274719
         }
      },
      {
         "alphaCutoff" : 0.5,
         "alphaMode" : "OPAQUE",
         "doubleSided" : true,
         "emissiveFactor" : [ 0, 0, 0 ],
         "name" : "01___Default",
         "pbrMetallicRoughness" : {
            "baseColorFactor" : [ 0.9020000100135803, 0.9020000100135803, 0.9020000100135803, 1 ],
            "baseColorTexture" : {
               "index" : 1,
               "texCoord" : 0
            },
            "metallicFactor" : 0,
            "roughnessFactor" : 0.9699476361274719
         }
      },
      {
         "alphaCutoff" : 0.5,
         "alphaMode" : "OPAQUE",
         "doubleSided" : true,
         "emissiveFactor" : [ 0, 0, 0 ],
         "name" : "03___Default",
         "pbrMetallicRoughness" : {
            "baseColorFactor" : [ 0.9020000100135803, 0.9020000100135803, 0.9020000100135803, 1 ],
            "baseColorTexture" : {
               "index" : 2,
               "texCoord" : 0
            },
            "metallicFactor" : 0,
            "roughnessFactor" : 0.9699476361274719
         }
      },
      {
         "alphaCutoff" : 0.5,
         "alphaMode" : "OPAQUE",
         "doubleSided" : true,
         "emissiveFactor" : [ 0, 0, 0 ],
         "name" : "Material__88",
         "pbrMetallicRoughness" : {
            "baseColorFactor" : [ 0.9020000100135803, 0.9020000100135803, 0.9020000100135803, 1 ],
            "metallicFactor" : 0,
            "roughnessFactor" : 0.9699476361274719
         }
      },
      {
         "alphaCutoff" : 0.5,
         "alphaMode" : "OPAQUE",
         "doubleSided" : true,
         "emissiveFactor" : [ 0, 0, 0 ],
         "name" : "02___Default",
         "pbrMetallicRoughness" : {
            "baseColorFactor" : [ 0.9020000100135803, 0.9020000100135803, 0.9020000100135803, 1 ],
            "baseColorTexture" : {
               "index" : 3,
               "texCoord" : 0
            },
            "metallicFactor" : 0,
            "roughnessFactor" : 0.9699476361274719
         }
      },
      {
         "alphaCutoff" : 0.5,
         "alphaMode" : "OPAQUE",
         "doubleSided" : true,
         "emissiveFactor" : [ 0, 0, 0 ],
         "name" : "Material__89",
         "pbrMetallicRoughness" : {
            "baseColorFactor" : [ 0.9020000100135803, 0.9020000100135803, 0.9020000100135803, 1 ],
            "metallicFactor" : 0,
            "roughnessFactor" : 0.9699476361274719
         }
      }
   ],
   "meshes" : [
      {
         "name" : "buffer-0-mesh-0",
         "primitives" : [
            {
               "attributes" : {
                  "NORMAL" : 2,
                  "POSITION" : 1,
                  "TEXCOORD_0" : 3
               },
               "indices" : 0,
               "material" : 0,
               "mode" : 4
            },
            {
               "attributes" : {
                  "NORMAL" : 6,
                  "POSITION" : 5,
                  "TEXCOORD_0" : 7
               },
               "indices" : 4,
               "material" : 1,
               "mode" : 4
            },
            {
               "attributes" : {
                  "NORMAL" : 10,
                  "POSITION" : 9,
                  "TEXCOORD_0" : 11
               },
               "indices" : 8,
               "material" : 2,
               "mode" : 4
            },
            {
               "attributes" : {
                  "NORMAL" : 14,
                  "POSITION" : 13,
                  "TEXCOORD_0" : 15
               },
               "indices" : 12,
               "material" : 3,
               "mode" : 4
            },
            {
               "attributes" : {
                  "NORMAL" : 18,
                  "POSITION" : 17,
                  "TEXCOORD_0" : 19
               },
               "indices" : 16,
               "material" : 4,
               "mode" : 4
            },
            {
               "attributes" : {
                  "NORMAL" : 22,
                  "POSITION" : 21,
                  "TEXCOORD_0" : 23
               },
               "indices" : 20,
               "material" : 5,
               "mode" : 4
            },
            {
               "attributes" : {
                  "NORMAL" : 26,
                  "POSITION" : 25,
                  "TEXCOORD_0" : 27
               },
               "indices" : 24,
               "material" : 6,
               "mode" : 4
            }
         ]
      }
   ],
   "nodes" : [
      {
         "mesh" : 0,
         "name" : "node-0"
      },
      {
         "children" : [ 2 ]
      },
      {
         "children" : [ 3 ],
         "extras" : {
            "isTransformNode" : 1
         },
         "translation" : [ 2.472325286865229, 17.22342229687349, 8.044676818847657 ]
      },
      {
         "children" : [ 0 ],
         "translation" : [ -2.472325286865229, -17.22342229687349, -8.044676818847657 ]
      },
      {
         "camera" : 0,
         "children" : [ 5 ],
         "rotation" : [
            -0.02038295220218233,
            0.2612886649260665,
            0.005518829522286266,
            0.9650296945490233
         ],
         "translation" : [ 87.74896008227871, 24.35937442214058, 153.8283926869965 ]
      },
      {
         "extensions" : {
            "KHR_lights_punctual" : {
               "light" : 0
            }
         },
         "extras" : {
            "isHeadLight" : 1
         },
         "name" : "headLightNode",
         "translation" : [ -59.04217078968703, 29.52108539484351, 29.52108539484351 ]
      },
      {
         "extensions" : {
            "KHR_lights_punctual" : {
               "light" : 1
            }
         },
         "extras" : {
            "isKeyLight" : 1
         },
         "name" : "keyLightNode",
         "rotation" : [ -0.7505326882858236, -0.3752663441429118, 0, 0.5439447166468927 ],
         "scale" : [ 0, 0, 59.6325924975839 ],
         "translation" : [ -56.28115659015848, 144.3533281900432, -51.79979067873624 ]
      }
   ],
   "samplers" : [
      {
         "name" : "20___Default-diffuse-sampler",
         "wrapS" : 10497,
         "wrapT" : 10497
      },
      {
         "name" : "01___Default-diffuse-sampler",
         "wrapS" : 10497,
         "wrapT" : 10497
      },
      {
         "name" : "03___Default-diffuse-sampler",
         "wrapS" : 10497,
         "wrapT" : 10497
      },
      {
         "name" : "02___Default-diffuse-sampler",
         "wrapS" : 10497,
         "wrapT" : 10497
      }
   ],
   "scene" : 0,
   "scenes" : [
      {
         "extensions" : {
            "GOOGLE_backgrounds" : {
               "color" : [ 0.7215686274509804, 0.8509803921568627, 0.8784313725490196 ]
            },
            "GOOGLE_camera_settings" : {
               "mode" : "movableOrbit",
               "pivot" : [ 2.559835385325272, 17.22346375553749, 8.044676818847535 ]
            }
         },
         "extras" : {
            "GOOGLE_camera_index" : {
               "cameraIndex" : 0,
               "nodeIndex" : 4
            },
            "GOOGLE_geometry_data" : {
               "stats" : {
                  "centroid" : [ 3.351435907425419, 25.08814319487541, 7.832801818847656 ],
                  "radius" : 59.04217078968703,
                  "stdev" : 48.62755060553251
               },
               "visualCenterPoint" : [ 2.472325286865229, 17.22342229687349, 8.044676818847657 ]
            },
            "GOOGLE_hemi_light" : {
               "groundColor" : [ 0.7215686274509804, 0.8509803921568627, 0.8784313725490196 ]
            }
         },
         "name" : "scene-0",
         "nodes" : [ 1, 4, 6 ]
      }
   ],
   "textures" : [
      {
         "name" : "20___Default-diffuse-texture",
         "sampler" : 0,
         "source" : 0
      },
      {
         "name" : "01___Default-diffuse-texture",
         "sampler" : 1,
         "source" : 1
      },
      {
         "name" : "03___Default-diffuse-texture",
         "sampler" : 2,
         "source" : 2
      },
      {
         "name" : "02___Default-diffuse-texture",
         "sampler" : 3,
         "source" : 3
      }
   ]
}
